<?xml version="1.0" encoding="UTF-8" standalone="no"?> <svg xmlns="http://www.w3.org/2000/svg" viewBox="0 0 64 64"><title>1</title><g id="Layer_5" data-name="Layer 5"><path d="M60.19,3.59,43.52,2h-.36L43,2l-.17,0L26.58,6.69,10.37,3.62A2,2,0,0,0,8,5.58v26a2,2,0,0,0,4,0V8l12.67,2.4V28.49a2,2,0,0,0,4,0V10.25l12.66-3.6V46.8l-7,2.23a2,2,0,1,0,1.21,3.81l8-2.55,16.26,1.54H60a2,2,0,0,0,2-2V5.58A2,2,0,0,0,60.19,3.59ZM58,47.64l-12.67-1.2V6.2L58,7.4Z"/><path d="M11.51,35.51a12,12,0,0,0-1.29,15.43L2.59,58.59a2,2,0,1,0,2.83,2.83l7.64-7.64a12,12,0,1,0-1.54-18.26ZM25.66,49.66a8,8,0,0,1-11.31,0h0a8,8,0,1,1,11.32,0Z"/></g></svg>